<svg id="Lager_1" data-name="Lager 1" xmlns="http://www.w3.org/2000/svg" viewBox="0 0 595.28 595.28"><defs><style>.cls-1{fill:#fff;fill-rule:evenodd;}</style></defs><title>Rityta 1</title><path class="cls-1" d="M555.7,41.92c-5.87,4.65-13.24,4-20,5.48-13.78,2.93-27.68,5.32-41.53,7.93l-44.76,8.4c-15.25,2.88-30.49,5.8-45.74,8.66-12.28,2.31-24.58,4.56-36.86,6.87Q346.57,83.07,326.31,87c-3.05.58-6.08,1.39-9.15,1.68-2.12.21-2.81,1.28-3.28,3.05q-4.06,15.31-8.22,30.61-8.46,31.32-16.94,62.64c-3.52,13-7,26.06-10.56,39.44,3.73-.58,7.25-1.1,10.76-1.69a482.76,482.76,0,0,1,57.75-6.43c14.5-.65,29-1.35,43.52-1.28,18.05.08,36.06,1.39,53.71,5.57,11.21,2.65,22.22,6,31.7,12.88,6.51,4.71,12.6,10.07,15.09,18.05a43.28,43.28,0,0,1-1.29,29.34,89.55,89.55,0,0,1-27.11,36.91c-.44.36-1,.54-1.36,1,7.66,2.69,14.7,5.75,21.05,10.22,15.77,11.11,25.9,26.18,31.47,44.55a102.91,102.91,0,0,1,3.17,47.53c-2.55,15.12-9.69,28.12-19.65,39.64-16.19,18.74-36.35,32.11-58.3,43.09C416,515.12,392.31,523.62,368,530.61c-16.83,4.85-33.72,9.56-50.78,13.53-21.15,4.92-42.44,9.29-63.77,13.37-25.39,4.85-51,8.09-76.77,10.65-19.7,2-39.42,3.7-59.13,5.66-21,2.09-42.07,4.31-63.1,6.48-1.33.14-2.65.41-4,.56-3.7.41-7.48,1.11-10.45-2.12v-6c1.87-5,3.79-10,5.59-15a7.38,7.38,0,0,1,6.44-5.06q27.54-2.79,55.09-5.59c16.94-1.7,33.89-3.39,50.85-5a2.84,2.84,0,0,0,2.88-2.47q5.73-21.37,11.48-42.76,9.6-35.56,19.24-71.13,8.25-30.58,16.47-61.2,7.53-27.93,15.11-55.84c4.15-15.37,8.27-30.75,12.58-46.76-3.32.93-6.26,1.67-9.15,2.59-16.24,5.13-31.81,11.9-47.2,19.15-4.66,2.2-8.54,1.28-10.72-3.7-1.81-4.14-3.69-8.26-5.55-12.38-2.06-4.57-.56-8.48,4.06-10.45,19.43-8.31,39.11-15.94,59.59-21.32,5.1-1.34,10.25-2.54,15.32-4a3.76,3.76,0,0,0,2.34-2.11c4.45-16.16,8.77-32.36,13.13-48.55q7.57-28,15.17-56.08,3.78-14,7.53-27.93a14.79,14.79,0,0,0,.19-1.63c-3.67.64-7.17,1.22-10.65,1.87q-16.33,3-32.65,6.1t-32.4,6.07q-16.08,3-32.14,6.12c-13.51,2.59-27,5.26-40.52,7.78C125,124.76,117.78,126,110.57,127c-2.75.38-4.77-1.94-4.78-4.78q0-10.2,0-20.41a5.49,5.49,0,0,1,4.59-5.4l63.09-11.76q34.5-6.47,69-13t68.74-13q33.38-6.3,66.75-12.64,31.28-5.88,62.56-11.7c16.65-3.13,33.29-6.36,49.94-9.49,17.89-3.37,35.78-6.66,53.68-10,.9-.17,1.79-.49,2.7-.6,3.28-.39,6.51-.52,8.87,2.46ZM193.49,538c1.44-.09,2.51-.09,3.56-.25,15-2.19,30.12-4,45-6.71,17.9-3.22,35.71-7,53.48-10.91a695.47,695.47,0,0,0,86-24.57c21.64-7.8,42.74-16.8,62.26-29.11,12.48-7.87,24.27-16.59,33.05-28.74,8.12-11.23,13.44-23.61,12.8-37.62a85.27,85.27,0,0,0-4.06-20.89c-4.45-14.4-13.51-24.9-28-30.23-10-3.68-20.36-5-30.88-5.06a109.32,109.32,0,0,0-18.81,1.1c-18.77,3.14-37.43,6.94-56.19,10.13-12.66,2.14-25.4,3.76-38.13,5.47-11.64,1.57-23.3,3-35,4.39q-18.86,2.31-37.75,4.47a2.75,2.75,0,0,0-2.69,2.41c-1.92,7.46-3.92,14.92-5.93,22.36q-8.79,32.54-17.62,65.05T197.11,524.4C195.92,528.82,194.76,533.25,193.49,538Zm53.66-198.89c2-.22,3.59-.36,5.15-.56,7.24-.93,14.48-1.88,21.72-2.8l49.19-6.23c13.82-1.75,27.65-3.41,41.44-5.28,11.21-1.53,22.51-2.31,33.46-5.56,15.61-4.63,30.56-10.54,43.76-20.29,9.59-7.09,17-15.93,21.12-27.23,2.4-6.62.59-12.52-5.21-16.55A53.49,53.49,0,0,0,447,248.87c-16.23-6.39-33.36-8-50.57-8.73-16.79-.75-33.53.51-50.26,1.9a638.12,638.12,0,0,0-70.68,10.18c-5.21,1-5.14,1-6.51,6.14Q261.87,284.7,254.71,311C252.22,320.24,249.76,329.45,247.15,339.15Z"/></svg>