<?xml version="1.0" encoding="utf-8"?>
<!-- Generator: Adobe Illustrator 22.1.0, SVG Export Plug-In . SVG Version: 6.00 Build 0)  -->
<svg version="1.1" id="Layer_1" xmlns="http://www.w3.org/2000/svg" xmlns:xlink="http://www.w3.org/1999/xlink" x="0px" y="0px"
	 viewBox="0 0 1000 1000" style="enable-background:new 0 0 1000 1000;" xml:space="preserve">
<style type="text/css">
	.st0{fill:#EB5D1E;}
	.st1{fill:#FECA13;}
	.st2{fill:#B41C1A;}
	.st3{fill:#6BAA32;}
	.st4{fill:#218FC1;}
</style>
<path d="M695.7,185.9c-31.2,4.9-108.1,17.3-187.9,30.4c-8.2,1.3,81.7-179.5,73.5-178.2c-6.3,1-110.7,184.3-116.9,185.3
	c-19.5,3.2-38.6,6.3-56.9,9.4c-4.1,0.7-109.8-137.1-113.7-136.4c-3.9,0.6,93.9,139.7,90.1,140.3c-48,7.9-86.7,14.4-102.5,17.2
	c-51.4,9.1-102.1,54.3-102.1,118.9v215.8c0,64.6,39.8,111.4,111.2,116.8s349.3,24.3,413.1,28.7c63.8,4.4,117.4-43.3,117.4-107.9V283
	C820.8,218.4,764.7,175.1,695.7,185.9z M739.9,621.8c0,36.8-30.2,62.6-65.8,60.4c-35.6-2.2-375.5-21.6-407.9-24.8
	c-38.8,0-66.9-30.1-66.9-66.9V368.2c0-36.8,32.9-61.4,66.9-66.9c34-5.5,367.9-59.3,404.6-65.8c36.7-6.5,69.1,19.3,69.1,56.1V621.8z"
	/>
<g>
	<path class="st0" d="M261.8,328.8c-19.3,5.7-36.6,19.9-36.6,39.4v126.4c63.9,43.4,134.7,80.3,210.6,112.5
		c32.1,15.2,64.6,28.8,97.6,41c31.9,1.9,61.6,3.6,85.4,5c28.7,1.7,49.4,2.9,56.9,3.3c0.9,0.1,1.7,0.1,2.6,0.1c3.1,0,6-0.4,8.9-1
		c-84.3-43.5-162.4-95.4-234.2-154.9C379.5,447.2,315.7,389.9,261.8,328.8z"/>
	<path class="st1" d="M714,591.8c-104.3-89.6-190.4-187.7-258.2-294.9c-55.6,9-112.9,18.3-161,26
		c109.6,131.9,282.3,252.5,418.6,305.3c0.4-2.1,0.6-4.2,0.6-6.4V591.8z"/>
	<path class="st2" d="M266.2,631.5h1.3l1.3,0.1c13.9,1.4,87.2,5.9,167.9,10.7c-75.1-32.7-145.9-70.5-211.5-114.5v62.7
		C225.2,613.9,242.8,631.5,266.2,631.5z"/>
	<path class="st3" d="M603.2,273c-32.3,5.3-72.4,11.8-114.9,18.7C549.4,385.7,624.4,471,714,549.1V486
		C670.2,416.7,633.3,346,603.2,273z"/>
	<path class="st4" d="M682.1,260.4c-2.2,0-4.5,0.2-6.8,0.6c-6.3,1.1-21.3,3.6-42.3,7.1c23.4,54.9,49.9,107.5,81,159.9V291.6
		C714,273.8,700.3,260.4,682.1,260.4z"/>
</g>
<g>
	<path d="M167.3,958.1c3.5-34.1,5.6-71.7,6.3-112.7l-44.8,1.2l0.5-11.7c0.3-6.3,0.5-13.1,0.6-20.5c19.9,0.1,43.2,0.2,69.7,0.2
		l26-0.1h25.3l13.7-0.1l-0.6,10.3c-0.3,5.5-0.5,10.1-0.6,13.7c-0.1,3.6-0.2,6.3-0.2,8.2c-15-0.8-27.4-1.2-37.2-1.2h-7.4
		c-1.1,12.4-1.9,23.9-2.4,34.4c-0.8,15.1-1.4,29.7-1.8,43.9c-0.4,14.2-0.6,25.7-0.6,34.4c-11.5-0.1-19-0.2-22.3-0.2
		C188.5,957.9,180.4,958,167.3,958.1z"/>
	<path class="st2" d="M316.5,958.1c3.5-34.1,5.6-71.7,6.3-112.7l-44.8,1.2l0.5-11.7c0.3-6.3,0.5-13.1,0.6-20.5
		c19.9,0.1,43.2,0.2,69.7,0.2l26-0.1h25.3l13.7-0.1l-0.6,10.3c-0.3,5.5-0.5,10.1-0.6,13.7c-0.1,3.6-0.2,6.3-0.2,8.2
		c-15-0.8-27.4-1.2-37.2-1.2H368c-1.1,12.4-1.9,23.9-2.4,34.4c-0.8,15.1-1.4,29.7-1.8,43.9c-0.4,14.2-0.6,25.7-0.6,34.4
		c-11.5-0.1-19-0.2-22.3-0.2C337.7,957.9,329.7,958,316.5,958.1z"/>
	<path class="st2" d="M447.5,958.1l-3.9-12.9l-25.7-74.1l-20.2-56.9c9.5,0.1,18,0.2,25.5,0.2c4.6,0,11.7-0.1,21.5-0.2
		c1.6,6.3,2.9,11,3.8,14.2c1.3,4.2,3.7,11.8,7.2,22.9l15.5,49.9c1.5,5.2,3.4,12,5.7,20.4l4.8-12.1l36.7-80.6
		c0.6-1.5,1.3-3.2,2.2-5.1c0.8-1.9,2.1-5.1,3.8-9.6c10.2,0.1,18.4,0.2,24.6,0.2c3.9,0,11.5-0.1,23-0.2
		c-7.2,13.3-15.3,28.9-24.3,46.8l-36.3,72.1c-3.5,7-7.4,15.4-11.8,25c-11.8-0.1-20.2-0.2-25.3-0.2
		C469.5,957.9,460.6,958,447.5,958.1z"/>
	<path d="M579.2,958.1c1.6-16,2.6-28.8,3.2-38.5c0.8-14.3,1.7-32.9,2.5-55.6c0.6-17.4,1-29.9,1-37.4v-12.3
		c8.2,0.2,15.3,0.3,21.3,0.3c5.8,0,13.3-0.2,22.6-0.5c9.3-0.3,18.1-0.5,26.3-0.5c9.4,0,17.7,0.6,24.8,1.7c7.1,1.1,13.7,3.4,19.9,7
		c6.1,3.5,11.3,8.1,15.4,13.8c4.1,5.7,7.3,12.3,9.5,20c2.2,7.6,3.3,15.5,3.3,23.6c0,7.9-0.8,15.6-2.5,22.9c-1.7,7.3-4,14-7.1,19.9
		c-3,5.9-6.6,11-10.6,15.2c-4,4.3-8.7,7.9-13.9,10.9c-3.9,2.2-7.8,4-11.7,5.3c-3.9,1.3-9.3,2.3-16.1,3.1c-7.6,0.8-16.2,1.3-25.8,1.3
		l-42.6-0.3C594.7,957.8,588.2,957.9,579.2,958.1z M624.8,926.4c3.9,0.4,7.9,0.5,12.1,0.5c7.2,0,13.5-0.6,19.2-1.9
		c5.6-1.3,10.5-4,14.8-8.1c4.2-4.1,7.4-9.5,9.4-16c2-6.5,3.1-13.2,3.1-20c0-8.4-1.5-15.4-4.5-21.1c-3-5.7-7-9.7-12.1-12
		c-5-2.2-11.9-3.4-20.5-3.4c-5.1,0-11,0.2-17.9,0.6L624.8,926.4z"/>
	<path d="M738.8,958.1c1.5-15.5,2.5-27.6,2.9-36.5c0.7-12.1,1.4-28.7,2.1-49.7c0.7-21.1,1-35.9,1-44.6c0-3.1,0-7.4-0.1-13.1
		c9.3,0.2,16.8,0.3,22.2,0.3c7.7,0,16.6-0.2,26.8-0.5c10.2-0.3,18.9-0.5,26.2-0.5c8.8,0,15,0.2,18.8,0.7c4.9,0.6,9.2,1.8,12.9,3.4
		c3.7,1.6,6.8,3.6,9.2,6c2.7,2.8,4.9,6.2,6.4,10.1c1.8,4.5,2.6,9.3,2.6,14.4c0,4-0.5,7.8-1.5,11.5c-1,3.7-2.5,6.9-4.3,9.7
		s-3.9,5.2-6.3,7.1c-2.3,1.9-4.6,3.4-6.8,4.4c-2.2,1.1-5.2,2.1-8.9,3.2c3.7,0.6,6.7,1.4,9,2.2c2.2,0.8,4.7,2.1,7.2,3.9
		c2.6,1.8,4.9,4.1,6.9,6.9c2,2.8,3.6,6,4.6,9.4c1,3.5,1.5,7.1,1.5,11c0,5.3-0.9,10.4-2.6,15.1c-1.8,4.7-4.2,8.7-7.4,12.1
		c-2.7,2.9-6.1,5.3-10.4,7.4c-4.3,2-8.7,3.4-13.2,4.2c-3.7,0.6-10.3,1-20,1.3c-9.7,0.3-19.9,0.4-30.7,0.4l-27.7-0.1L738.8,958.1z
		 M783.3,929.2h20.2c5.3,0,9.3-0.3,11.8-0.9c3.1-0.8,5.4-1.8,7.1-3.1c1.6-1.3,2.9-3,3.9-5.2c0.9-2.2,1.4-4.6,1.4-7.3
		c0-2.3-0.4-4.4-1.2-6.1c-0.8-1.8-1.9-3.2-3.5-4.4c-1.5-1.2-3.4-2.1-5.7-2.6c-2.2-0.5-5.8-0.8-10.5-0.8h-22.2L783.3,929.2z
		 M785.7,870.3h15c4.9,0,8.4-0.1,10.5-0.4c2.1-0.2,4.1-0.7,6.1-1.3c2-0.6,3.7-1.7,5.1-3.2c1.4-1.5,2.5-3.1,3.1-5
		c0.6-1.8,0.9-3.7,0.9-5.5c0-2.6-0.6-4.9-1.8-7c-1.2-2-3.2-3.5-6-4.5c-2.7-1-6.9-1.5-12.5-1.5h-19L785.7,870.3z"/>
</g>
</svg>
